<svg xmlns="http://www.w3.org/2000/svg" width="1520" height="1140" viewBox="0 0 1520 1140">
<rect x="0" y="0" width="1520" height="1140" rx="0" fill="#f4f7f4" stroke="none" stroke-width="0"/>
<text x="760.0" y="38" font-size="24" fill="#222" text-anchor="middle" font-weight="bold" font-family="IPAGothic, sans-serif">プーブタウン ロケーションマップ（v2・全ロケ反映）</text>
<text x="760.0" y="62" font-size="13" fill="#555" text-anchor="middle" font-weight="normal" font-family="IPAGothic, sans-serif">ゆるテーマ＋住宅街に混然／中央=みんなのうえん敷地内にこどもプーブリカ／◇花屋台ふ・猫ウルフはランダム出現</text>
<line x1="40" y1="790" x2="1480" y2="790" stroke="#e9e3d4" stroke-width="18"/>
<line x1="760" y1="240" x2="760" y2="790" stroke="#e9e3d4" stroke-width="18"/>
<rect x="40" y="84" width="1440" height="150" rx="16" fill="#a7e0a7" stroke="#7a7a7a" stroke-width="2"/>
<text x="54" y="108" font-size="15" fill="#333" text-anchor="start" font-weight="bold" font-family="IPAGothic, sans-serif">── 北：海辺・しぜん（採集/つり/壁画の名所）──</text>
<rect x="54" y="124" width="165" height="30" rx="8" fill="#a7e0a7" stroke="#888" stroke-width="1.2"/>
<text x="136.5" y="144.0" font-size="11" fill="#222" text-anchor="middle" font-weight="bold" font-family="IPAGothic, sans-serif">プーブパーク(大きな公園)</text>
<rect x="227" y="124" width="99" height="30" rx="8" fill="#a7e0a7" stroke="#888" stroke-width="1.2"/>
<text x="276.5" y="144.0" font-size="11" fill="#222" text-anchor="middle" font-weight="bold" font-family="IPAGothic, sans-serif">リカ公園(小)</text>
<rect x="334" y="124" width="99" height="30" rx="8" fill="#a7e0a7" stroke="#888" stroke-width="1.2"/>
<text x="383.5" y="144.0" font-size="11" fill="#222" text-anchor="middle" font-weight="bold" font-family="IPAGothic, sans-serif">池・川(つり)</text>
<rect x="441" y="124" width="110" height="30" rx="8" fill="#a7e0a7" stroke="#888" stroke-width="1.2"/>
<text x="496.0" y="144.0" font-size="11" fill="#222" text-anchor="middle" font-weight="bold" font-family="IPAGothic, sans-serif">はまべ(貝/砂)</text>
<rect x="559" y="124" width="176" height="30" rx="8" fill="#a9d3ff" stroke="#888" stroke-width="1.2"/>
<text x="647.0" y="144.0" font-size="11" fill="#222" text-anchor="middle" font-weight="bold" font-family="IPAGothic, sans-serif">防潮堤(壁画3枚 A3-5)</text>
<rect x="743" y="124" width="209" height="30" rx="8" fill="#c9b3f0" stroke="#888" stroke-width="1.2"/>
<text x="847.5" y="144.0" font-size="11" fill="#222" text-anchor="middle" font-weight="bold" font-family="IPAGothic, sans-serif">アート倉庫(屋上=宇宙服猫A11)</text>
<rect x="545" y="250" width="420" height="250" rx="16" fill="#cdeccb" stroke="#5fa15c" stroke-width="2"/>
<text x="559" y="274" font-size="15" fill="#333" text-anchor="start" font-weight="bold" font-family="IPAGothic, sans-serif">★中央：みんなのうえん（敷地）</text>
<rect x="559" y="290" width="209" height="30" rx="8" fill="#ffce6a" stroke="#888" stroke-width="1.2"/>
<text x="663.5" y="310.0" font-size="11" fill="#222" text-anchor="middle" font-weight="bold" font-family="IPAGothic, sans-serif">★こどもプーブリカ(+ちからこぶ)</text>
<rect x="776" y="290" width="88" height="30" rx="8" fill="#ffe98a" stroke="#888" stroke-width="1.2"/>
<text x="820.0" y="310.0" font-size="11" fill="#222" text-anchor="middle" font-weight="bold" font-family="IPAGothic, sans-serif">ふんすい広場</text>
<rect x="559" y="326" width="132" height="30" rx="8" fill="#e0b483" stroke="#888" stroke-width="1.2"/>
<text x="625.0" y="346.0" font-size="11" fill="#222" text-anchor="middle" font-weight="bold" font-family="IPAGothic, sans-serif">畑(プレイヤー区画)</text>
<rect x="699" y="326" width="88" height="30" rx="8" fill="#dddddd" stroke="#888" stroke-width="1.2"/>
<text x="743.0" y="346.0" font-size="11" fill="#222" text-anchor="middle" font-weight="bold" font-family="IPAGothic, sans-serif">のらしごと屋</text>
<rect x="795" y="326" width="99" height="30" rx="8" fill="#dddddd" stroke="#888" stroke-width="1.2"/>
<text x="844.5" y="346.0" font-size="11" fill="#222" text-anchor="middle" font-weight="bold" font-family="IPAGothic, sans-serif">もりもり肥料店</text>
<rect x="559" y="362" width="154" height="30" rx="8" fill="#c9b3f0" stroke="#888" stroke-width="1.2"/>
<text x="636.0" y="382.0" font-size="11" fill="#222" text-anchor="middle" font-weight="bold" font-family="IPAGothic, sans-serif">畑アート A15/A17</text>
<rect x="40" y="250" width="480" height="520" rx="16" fill="#c9b3f0" stroke="#7a7a7a" stroke-width="2"/>
<text x="54" y="274" font-size="15" fill="#333" text-anchor="start" font-weight="bold" font-family="IPAGothic, sans-serif">── 西：ものづくり・工場エリア ──</text>
<rect x="54" y="290" width="198" height="30" rx="8" fill="#c9b3f0" stroke="#888" stroke-width="1.2"/>
<text x="153.0" y="310.0" font-size="11" fill="#222" text-anchor="middle" font-weight="bold" font-family="IPAGothic, sans-serif">スーパースタジオ(巨大倉庫2F)</text>
<rect x="260" y="290" width="132" height="30" rx="8" fill="#c9b3f0" stroke="#888" stroke-width="1.2"/>
<text x="326.0" y="310.0" font-size="11" fill="#222" text-anchor="middle" font-weight="bold" font-family="IPAGothic, sans-serif">ネンシャ(デザイン)</text>
<rect x="54" y="326" width="110" height="30" rx="8" fill="#c9b3f0" stroke="#888" stroke-width="1.2"/>
<text x="109.0" y="346.0" font-size="11" fill="#222" text-anchor="middle" font-weight="bold" font-family="IPAGothic, sans-serif">コトハナ(企画)</text>
<rect x="172" y="326" width="132" height="30" rx="8" fill="#c9b3f0" stroke="#888" stroke-width="1.2"/>
<text x="238.0" y="346.0" font-size="11" fill="#222" text-anchor="middle" font-weight="bold" font-family="IPAGothic, sans-serif">ドットアーキ(建築)</text>
<rect x="312" y="326" width="143" height="30" rx="8" fill="#c9b3f0" stroke="#888" stroke-width="1.2"/>
<text x="383.5" y="346.0" font-size="11" fill="#222" text-anchor="middle" font-weight="bold" font-family="IPAGothic, sans-serif">塗装アート アンドソー</text>
<rect x="54" y="362" width="44" height="30" rx="8" fill="#dddddd" stroke="#888" stroke-width="1.2"/>
<text x="76.0" y="382.0" font-size="11" fill="#222" text-anchor="middle" font-weight="bold" font-family="IPAGothic, sans-serif">工具</text>
<rect x="106" y="362" width="44" height="30" rx="8" fill="#dddddd" stroke="#888" stroke-width="1.2"/>
<text x="128.0" y="382.0" font-size="11" fill="#222" text-anchor="middle" font-weight="bold" font-family="IPAGothic, sans-serif">金具</text>
<rect x="158" y="362" width="44" height="30" rx="8" fill="#dddddd" stroke="#888" stroke-width="1.2"/>
<text x="180.0" y="382.0" font-size="11" fill="#222" text-anchor="middle" font-weight="bold" font-family="IPAGothic, sans-serif">木材</text>
<rect x="210" y="362" width="66" height="30" rx="8" fill="#dddddd" stroke="#888" stroke-width="1.2"/>
<text x="243.0" y="382.0" font-size="11" fill="#222" text-anchor="middle" font-weight="bold" font-family="IPAGothic, sans-serif">工作材料</text>
<rect x="284" y="362" width="143" height="30" rx="8" fill="#dddddd" stroke="#888" stroke-width="1.2"/>
<text x="355.5" y="382.0" font-size="11" fill="#222" text-anchor="middle" font-weight="bold" font-family="IPAGothic, sans-serif">家具工場(壁画A13)</text>
<rect x="54" y="398" width="154" height="30" rx="8" fill="#dddddd" stroke="#888" stroke-width="1.2"/>
<text x="131.0" y="418.0" font-size="11" fill="#222" text-anchor="middle" font-weight="bold" font-family="IPAGothic, sans-serif">工場1(壁画A31=P)</text>
<rect x="216" y="398" width="132" height="30" rx="8" fill="#dddddd" stroke="#888" stroke-width="1.2"/>
<text x="282.0" y="418.0" font-size="11" fill="#222" text-anchor="middle" font-weight="bold" font-family="IPAGothic, sans-serif">工場2(汽車A18)</text>
<rect x="356" y="398" width="143" height="30" rx="8" fill="#dddddd" stroke="#888" stroke-width="1.2"/>
<text x="427.5" y="418.0" font-size="11" fill="#222" text-anchor="middle" font-weight="bold" font-family="IPAGothic, sans-serif">工場3(タイポA19)</text>
<rect x="54" y="434" width="110" height="30" rx="8" fill="#dddddd" stroke="#888" stroke-width="1.2"/>
<text x="109.0" y="454.0" font-size="11" fill="#222" text-anchor="middle" font-weight="bold" font-family="IPAGothic, sans-serif">倉庫2(顔A9)</text>
<rect x="1000" y="250" width="480" height="520" rx="16" fill="#ff9b8a" stroke="#7a7a7a" stroke-width="2"/>
<text x="1014" y="274" font-size="15" fill="#333" text-anchor="start" font-weight="bold" font-family="IPAGothic, sans-serif">── 東：たべもの・喫茶エリア ──</text>
<rect x="1014" y="290" width="88" height="30" rx="8" fill="#ff9b8a" stroke="#888" stroke-width="1.2"/>
<text x="1058.0" y="310.0" font-size="11" fill="#222" text-anchor="middle" font-weight="bold" font-family="IPAGothic, sans-serif">中華みんらく</text>
<rect x="1110" y="290" width="209" height="30" rx="8" fill="#ff9b8a" stroke="#888" stroke-width="1.2"/>
<text x="1214.5" y="310.0" font-size="11" fill="#222" text-anchor="middle" font-weight="bold" font-family="IPAGothic, sans-serif">オハラカレー&amp;BAR(壁画A22)</text>
<rect x="1327" y="290" width="121" height="30" rx="8" fill="#ff9b8a" stroke="#888" stroke-width="1.2"/>
<text x="1387.5" y="310.0" font-size="11" fill="#222" text-anchor="middle" font-weight="bold" font-family="IPAGothic, sans-serif">まるた食堂(朝市)</text>
<rect x="1014" y="326" width="110" height="30" rx="8" fill="#ff9b8a" stroke="#888" stroke-width="1.2"/>
<text x="1069.0" y="346.0" font-size="11" fill="#222" text-anchor="middle" font-weight="bold" font-family="IPAGothic, sans-serif">家庭料理こもれび</text>
<rect x="1132" y="326" width="110" height="30" rx="8" fill="#ff9b8a" stroke="#888" stroke-width="1.2"/>
<text x="1187.0" y="346.0" font-size="11" fill="#222" text-anchor="middle" font-weight="bold" font-family="IPAGothic, sans-serif">ナチュラルサンド</text>
<rect x="1250" y="326" width="121" height="30" rx="8" fill="#a7e0a7" stroke="#888" stroke-width="1.2"/>
<text x="1310.5" y="346.0" font-size="11" fill="#222" text-anchor="middle" font-weight="bold" font-family="IPAGothic, sans-serif">八百屋おやさい本舗</text>
<rect x="1014" y="362" width="110" height="30" rx="8" fill="#ff9b8a" stroke="#888" stroke-width="1.2"/>
<text x="1069.0" y="382.0" font-size="11" fill="#222" text-anchor="middle" font-weight="bold" font-family="IPAGothic, sans-serif">たこやき たこ天</text>
<rect x="1132" y="362" width="88" height="30" rx="8" fill="#ff9b8a" stroke="#888" stroke-width="1.2"/>
<text x="1176.0" y="382.0" font-size="11" fill="#222" text-anchor="middle" font-weight="bold" font-family="IPAGothic, sans-serif">純喫茶こはく</text>
<rect x="1228" y="362" width="99" height="30" rx="8" fill="#a9d3ff" stroke="#888" stroke-width="1.2"/>
<text x="1277.5" y="382.0" font-size="11" fill="#222" text-anchor="middle" font-weight="bold" font-family="IPAGothic, sans-serif">ツナグコーヒー</text>
<rect x="1014" y="398" width="275" height="30" rx="8" fill="#ecd7b0" stroke="#888" stroke-width="1.2"/>
<text x="1151.5" y="418.0" font-size="11" fill="#222" text-anchor="middle" font-weight="bold" font-family="IPAGothic, sans-serif">長屋:チャイ/サンド/本のすみか(壁画A29)</text>
<rect x="545" y="515" width="420" height="255" rx="16" fill="#e9e7e0" stroke="#7a7a7a" stroke-width="2"/>
<text x="559" y="539" font-size="15" fill="#333" text-anchor="start" font-weight="bold" font-family="IPAGothic, sans-serif">── 空き物件・ひみつ（まちづくり/探究）──</text>
<rect x="559" y="555" width="121" height="30" rx="8" fill="#e9e7e0" stroke="#888" stroke-width="1.2" stroke-dasharray="5 4"/>
<text x="619.5" y="575.0" font-size="11" fill="#222" text-anchor="middle" font-weight="bold" font-family="IPAGothic, sans-serif">空き家②(A24)</text>
<rect x="688" y="555" width="121" height="30" rx="8" fill="#e9e7e0" stroke="#888" stroke-width="1.2" stroke-dasharray="5 4"/>
<text x="748.5" y="575.0" font-size="11" fill="#222" text-anchor="middle" font-weight="bold" font-family="IPAGothic, sans-serif">空き家③(A25)</text>
<rect x="817" y="555" width="121" height="30" rx="8" fill="#e9e7e0" stroke="#888" stroke-width="1.2" stroke-dasharray="5 4"/>
<text x="877.5" y="575.0" font-size="11" fill="#222" text-anchor="middle" font-weight="bold" font-family="IPAGothic, sans-serif">空き地①(A23)</text>
<rect x="559" y="591" width="143" height="30" rx="8" fill="#e9e7e0" stroke="#888" stroke-width="1.2" stroke-dasharray="5 4"/>
<text x="630.5" y="611.0" font-size="11" fill="#222" text-anchor="middle" font-weight="bold" font-family="IPAGothic, sans-serif">大きな空き地(A26)</text>
<rect x="710" y="591" width="110" height="30" rx="8" fill="#e9e7e0" stroke="#888" stroke-width="1.2" stroke-dasharray="5 4"/>
<text x="765.0" y="611.0" font-size="11" fill="#222" text-anchor="middle" font-weight="bold" font-family="IPAGothic, sans-serif">空き工場(A7)</text>
<rect x="559" y="627" width="253" height="30" rx="8" fill="#bfe6b0" stroke="#888" stroke-width="1.2" stroke-dasharray="5 4"/>
<text x="685.5" y="647.0" font-size="11" fill="#222" text-anchor="middle" font-weight="bold" font-family="IPAGothic, sans-serif">★シークレットガーデン=エキスペリファーム</text>
<rect x="40" y="795" width="1440" height="235" rx="16" fill="#a9d3ff" stroke="#7a7a7a" stroke-width="2"/>
<text x="54" y="819" font-size="15" fill="#333" text-anchor="start" font-weight="bold" font-family="IPAGothic, sans-serif">── 南：くらし・商店街・住宅エリア（混然）──</text>
<rect x="54" y="835" width="300" height="30" rx="8" fill="#e0b483" stroke="#888" stroke-width="1.2"/>
<text x="204.0" y="855.0" font-size="11" fill="#222" text-anchor="middle" font-weight="bold" font-family="IPAGothic, sans-serif">プーブ商店街(アーケード):オキ/ヤミー/文房具/雑貨</text>
<rect x="362" y="835" width="275" height="30" rx="8" fill="#ecd7b0" stroke="#888" stroke-width="1.2"/>
<text x="499.5" y="855.0" font-size="11" fill="#222" text-anchor="middle" font-weight="bold" font-family="IPAGothic, sans-serif">2階建て:イエ/サンセール/エトラ/美容室シー</text>
<rect x="645" y="835" width="143" height="30" rx="8" fill="#a9d3ff" stroke="#888" stroke-width="1.2"/>
<text x="716.5" y="855.0" font-size="11" fill="#222" text-anchor="middle" font-weight="bold" font-family="IPAGothic, sans-serif">美容室スミス(夜DJ)</text>
<rect x="796" y="835" width="110" height="30" rx="8" fill="#bfe3e8" stroke="#888" stroke-width="1.2"/>
<text x="851.0" y="855.0" font-size="11" fill="#222" text-anchor="middle" font-weight="bold" font-family="IPAGothic, sans-serif">寿楽温泉(銭湯)</text>
<rect x="914" y="835" width="143" height="30" rx="8" fill="#a9d3ff" stroke="#888" stroke-width="1.2"/>
<text x="985.5" y="855.0" font-size="11" fill="#222" text-anchor="middle" font-weight="bold" font-family="IPAGothic, sans-serif">さんぽや(街歩き案内)</text>
<rect x="1065" y="835" width="132" height="30" rx="8" fill="#a9d3ff" stroke="#888" stroke-width="1.2"/>
<text x="1131.0" y="855.0" font-size="11" fill="#222" text-anchor="middle" font-weight="bold" font-family="IPAGothic, sans-serif">ビル1(ロボA28)</text>
<rect x="1205" y="835" width="187" height="30" rx="8" fill="#a9d3ff" stroke="#888" stroke-width="1.2"/>
<text x="1298.5" y="855.0" font-size="11" fill="#222" text-anchor="middle" font-weight="bold" font-family="IPAGothic, sans-serif">マンション(A6前/A20壁)</text>
<rect x="54" y="871" width="110" height="30" rx="8" fill="#ffe98a" stroke="#888" stroke-width="1.2"/>
<text x="109.0" y="891.0" font-size="11" fill="#222" text-anchor="middle" font-weight="bold" font-family="IPAGothic, sans-serif">住宅1(A16)</text>
<rect x="172" y="871" width="132" height="30" rx="8" fill="#ffe98a" stroke="#888" stroke-width="1.2"/>
<text x="238.0" y="891.0" font-size="11" fill="#222" text-anchor="middle" font-weight="bold" font-family="IPAGothic, sans-serif">住宅2(お皿A27)</text>
<rect x="312" y="871" width="110" height="30" rx="8" fill="#ffe98a" stroke="#888" stroke-width="1.2"/>
<text x="367.0" y="891.0" font-size="11" fill="#222" text-anchor="middle" font-weight="bold" font-family="IPAGothic, sans-serif">住宅3(A30)</text>
<rect x="430" y="871" width="110" height="30" rx="8" fill="#ffe98a" stroke="#888" stroke-width="1.2"/>
<text x="485.0" y="891.0" font-size="11" fill="#222" text-anchor="middle" font-weight="bold" font-family="IPAGothic, sans-serif">住宅4(A21)</text>
<rect x="548" y="871" width="99" height="30" rx="8" fill="#ffe98a" stroke="#888" stroke-width="1.2"/>
<text x="597.5" y="891.0" font-size="11" fill="#222" text-anchor="middle" font-weight="bold" font-family="IPAGothic, sans-serif">プレイヤーの家</text>
<rect x="655" y="871" width="143" height="30" rx="8" fill="#ffe98a" stroke="#888" stroke-width="1.2"/>
<text x="726.5" y="891.0" font-size="11" fill="#222" text-anchor="middle" font-weight="bold" font-family="IPAGothic, sans-serif">友達の家(オンライン)</text>
<rect x="806" y="871" width="176" height="30" rx="8" fill="#ffe98a" stroke="#888" stroke-width="1.2"/>
<text x="894.0" y="891.0" font-size="11" fill="#222" text-anchor="middle" font-weight="bold" font-family="IPAGothic, sans-serif">自分のお店(空き店舗→開業)</text>
<rect x="40" y="1048" width="1440" height="72" rx="12" fill="#fff" stroke="#ccc" stroke-width="2"/>
<text x="60" y="1072" font-size="13" fill="#222" text-anchor="start" font-weight="bold" font-family="IPAGothic, sans-serif">◇ 花屋台ふ／猫ウルフ ＝街じゅうにランダム出現</text>
<text x="60" y="1096" font-size="12" fill="#555" text-anchor="start" font-weight="normal" font-family="IPAGothic, sans-serif">● 収集は街じゅうに散在：アート31点 / 猫(ウルフ+主猫) / マンホール10 / 植物(公園・うえん・植木鉢・ベランダぶどう・空き地果物)</text>
<text x="900" y="1072" font-size="12" fill="#222" text-anchor="start" font-weight="bold" font-family="IPAGothic, sans-serif">凡例:</text>
<rect x="948" y="1062" width="18" height="14" rx="4" fill="#ffce6a" stroke="#5b5b5b" stroke-width="1"/>
<text x="970" y="1074" font-size="11" fill="#222" text-anchor="start" font-weight="normal" font-family="IPAGothic, sans-serif">ハブ</text>
<rect x="1012" y="1062" width="18" height="14" rx="4" fill="#ff9b8a" stroke="#5b5b5b" stroke-width="1"/>
<text x="1034" y="1074" font-size="11" fill="#222" text-anchor="start" font-weight="normal" font-family="IPAGothic, sans-serif">食</text>
<rect x="1064" y="1062" width="18" height="14" rx="4" fill="#c9b3f0" stroke="#5b5b5b" stroke-width="1"/>
<text x="1086" y="1074" font-size="11" fill="#222" text-anchor="start" font-weight="normal" font-family="IPAGothic, sans-serif">ものづくり</text>
<rect x="1164" y="1062" width="18" height="14" rx="4" fill="#a9d3ff" stroke="#5b5b5b" stroke-width="1"/>
<text x="1186" y="1074" font-size="11" fill="#222" text-anchor="start" font-weight="normal" font-family="IPAGothic, sans-serif">くらし</text>
<rect x="1240" y="1062" width="18" height="14" rx="4" fill="#a7e0a7" stroke="#5b5b5b" stroke-width="1"/>
<text x="1262" y="1074" font-size="11" fill="#222" text-anchor="start" font-weight="normal" font-family="IPAGothic, sans-serif">しぜん</text>
<rect x="1316" y="1062" width="18" height="14" rx="4" fill="#dddddd" stroke="#5b5b5b" stroke-width="1"/>
<text x="1338" y="1074" font-size="11" fill="#222" text-anchor="start" font-weight="normal" font-family="IPAGothic, sans-serif">材料/工場</text>
<rect x="1416" y="1062" width="18" height="14" rx="4" fill="#ffe98a" stroke="#5b5b5b" stroke-width="1"/>
<text x="1438" y="1074" font-size="11" fill="#222" text-anchor="start" font-weight="normal" font-family="IPAGothic, sans-serif">住宅</text>
<rect x="1480" y="1062" width="18" height="14" rx="4" fill="#e0b483" stroke="#5b5b5b" stroke-width="1"/>
<text x="1502" y="1074" font-size="11" fill="#222" text-anchor="start" font-weight="normal" font-family="IPAGothic, sans-serif">商店街/長屋</text>
<rect x="1592" y="1062" width="18" height="14" rx="4" fill="#bfe3e8" stroke="#5b5b5b" stroke-width="1"/>
<text x="1614" y="1074" font-size="11" fill="#222" text-anchor="start" font-weight="normal" font-family="IPAGothic, sans-serif">温泉</text>
<rect x="1656" y="1062" width="18" height="14" rx="4" fill="#e9e7e0" stroke="#5b5b5b" stroke-width="1"/>
<text x="1678" y="1074" font-size="11" fill="#222" text-anchor="start" font-weight="normal" font-family="IPAGothic, sans-serif">空き(点線)</text>
<rect x="1768" y="1062" width="18" height="14" rx="4" fill="#bfe6b0" stroke="#5b5b5b" stroke-width="1"/>
<text x="1790" y="1074" font-size="11" fill="#222" text-anchor="start" font-weight="normal" font-family="IPAGothic, sans-serif">探究農園</text>
</svg>
